<?xml version="1.0"?>
<!--Icons from directory ""-->
<svg xmlns="http://www.w3.org/2000/svg" width="22" height="44" viewBox="0 0 22 44"><svg xmlns:xlink="http://www.w3.org/1999/xlink" id="gp_off" style="enable-background:new 0 0 22 22" xml:space="preserve" viewBox="0 0 22 22" version="1.1" y="0" x="0px" width="22" height="22"><style type="text/css">	.st0{fill:#231F20;}	.st1{fill:#F58532;}	.st2{fill:#5F6262;}	.st3{fill:#FFFFFF;}</style>	<circle cy="11" cx="11" r="11" class="st2"/>		<path class="st3" d="m8.8 11.7h2.4c-0.3 1-1.2 1.8-2.4 1.8-1.4 0-2.5-1.1-2.5-2.5s1.1-2.5 2.5-2.5c0.6 0 1.3 0.2 1.7 0.7l0.9-1c-0.7-0.7-1.7-1.1-2.7-1.1-2 0.1-3.7 1.8-3.7 3.9s1.7 3.8 3.8 3.8 3.8-1.7 3.8-3.8v-0.7h-3.8v1.4z"/>		<polygon points="16 10.4 16 9.3 14.8 9.3 14.8 10.4 13.7 10.4 13.7 11.6 14.8 11.6 14.8 12.6 16 12.6 16 11.6 17 11.6 17 10.4" class="st3"/></svg><svg xmlns:xlink="http://www.w3.org/1999/xlink" id="gp_on" style="enable-background:new 0 0 22 22" xml:space="preserve" viewBox="0 0 22 22" version="1.1" y="22" x="0px" width="22" height="22"><style type="text/css">	.st0{fill:#231F20;}	.st1{fill:#F58532;}	.st2{fill:#5F6262;}	.st3{fill:#FFFFFF;}</style>	<circle cy="11" cx="11" r="11" class="st1"/>		<path class="st3" d="m8.8 11.7h2.4c-0.3 1-1.2 1.8-2.4 1.8-1.4 0-2.5-1.1-2.5-2.5s1.1-2.5 2.5-2.5c0.6 0 1.3 0.2 1.7 0.7l0.9-1c-0.7-0.7-1.7-1.1-2.7-1.1-2 0.1-3.7 1.8-3.7 3.9s1.7 3.8 3.8 3.8 3.8-1.7 3.8-3.8v-0.7h-3.8v1.4z"/>		<polygon points="16 10.4 16 9.3 14.8 9.3 14.8 10.4 13.7 10.4 13.7 11.6 14.8 11.6 14.8 12.6 16 12.6 16 11.6 17 11.6 17 10.4" class="st3"/></svg></svg>
